# xmcd CD database file
#
# Track frame offsets:
#	150
#	15398
#	35551
#
# Disc length: 720 seconds
#
# Revision: 0
# Processed by: cddbd v1.4PL0 Copyright (c) Steve Scherf et al.
# Submitted via: Feurio! 1.65 - http://www.feurio.com
#
DISCID=1802ce03
DTITLE=Eva Cassidy - Fields of Gold
DYEAR=1900
DGENRE=blues
TTITLE0=Fields of Gold
TTITLE1=Wayfaring Stranger
TTITLE2=Tall Trees in Georgia
EXTD=
EXTT0=
EXTT1=
EXTT2=
PLAYORDER=
